<?xml version="1.0" encoding="UTF-8"?><svg id="_图层_1" xmlns="http://www.w3.org/2000/svg" viewBox="0 0 216.45 142.6"><defs><style>.cls-1{fill:#f98913;}.cls-1,.cls-2,.cls-3,.cls-4,.cls-5,.cls-6,.cls-7,.cls-8,.cls-9,.cls-10,.cls-11,.cls-12,.cls-13,.cls-14,.cls-15,.cls-16,.cls-17,.cls-18,.cls-19,.cls-20{stroke-width:0px;}.cls-2{fill:#fb880e;}.cls-3{fill:#fb8508;}.cls-4{fill:#fc8304;}.cls-5{fill:#fc8609;}.cls-6{fill:#fff;}.cls-7{fill:#f1810b;}.cls-8{fill:#faefe3;}.cls-9{fill:#fcfbfa;}.cls-10{fill:#fe8405;}.cls-11{fill:#fe8200;}.cls-12{fill:#fe8201;}.cls-13{fill:#fe8303;}.cls-14{fill:#fefdfd;}.cls-15{fill:#fefdfc;}.cls-16{fill:#fd8405;}.cls-17{fill:#fd8507;}.cls-18{fill:#fd8205;}.cls-19{fill:#fefefe;}.cls-20{fill:#f47f05;}</style></defs><path class="cls-12" d="m121.14,97.64c-5.45,22.05-18.91,36.64-40.82,42.85-36.75,10.42-73.44-19.14-71.5-57.35.31-6.14,1.32-12.12,3.84-17.78,1.93-.38,2.92.61,3.39,2.34-.85,3.88-1.9,7.71-2.49,11.67-3.39,22.88,11.7,48.25,35.97,55.87,26.98,8.46,57.18-6.31,65.82-34.96.35-1.17.48-2.48,1.64-3.27,1.5-.55,2.95-.76,4.15.62Z"/><path class="cls-6" d="m149.8,27.36c.14-3.07.46-6.55.42-10.04-.02-2.23.89-2.68,2.88-2.63,7.32.2,6.05-1.19,6.03,6,0,4.73-.25,9.46.12,14.2.19,2.41,1.23,3.28,3.63,2.92,5.79-.87,11.52-2.03,17.16-3.61,2.12-.59,3.46-.45,3.42,2.07-.03,1.98,3.16,4.73-1.31,5.73-6.79,1.53-13.49,3.51-20.44,4.3-8.21.94-10.98-1.36-11.45-9.56-.17-2.99-.29-5.98-.45-9.39Z"/><path class="cls-6" d="m52.96,30.24c-.87-2.16-1.59-4.39-2.65-6.45-.89-1.73-.58-2.41,1.22-3.17,5.99-2.5,5.96-2.58,8.69,3.54.7,1.57,1.32,3.18,1.98,4.77,1.31.9,1.54,2.39,2.05,3.73.43,1.8.99,3.56,1.56,5.32.67,2.67.86,5.43,1.49,8.11.4,1.43.21,2.93.53,4.37.07.24.13.48.16.73,1.32,8.56.18,9.77-8.64,9.17-1.67-1.35-1.38-3.41-1.9-5.18-.07-.48-.08-.98-.11-1.47-.44-7.05-.56-7.14-7.37-5.62-1.98.27-3.9.97-5.94.81-2.54-.61-2.7-2.8-3.16-4.79-.85-2.93.42-4.38,3.28-4.87,2.3-.4,4.58-.94,6.9-1.26,2.45-.34,3.14-1.64,2.18-3.88-.32-1.27-.94-2.52-.29-3.86Z"/><path class="cls-6" d="m201.47,37.74c-.38,1.48.97,3.62-.51,4.19-2.13.82-4.64.78-7,.82-1.23.02-.8-1.32-.92-2.1-.71-4.42-1.59-8.84-1.97-13.29-.26-2.97-1.63-2.93-3.84-2.39-2.9.71-5.86,1.16-8.76,1.88-1.77.44-2.35-.07-2.69-1.87-.99-5.28-1.09-5.26,4.08-6.26,9.29-1.79,9.22-1.76,5.47-10.46-.51-1.19-3.5-3.29.17-4.22,2.49-.63,5.24-4.75,7.72.61,4.89,10.56,7.24,21.66,8.25,33.08Z"/><path class="cls-6" d="m123.88,51.81c-2.18.81-2.07-1.04-2.25-2.7-1.25-11.68-3.56-23.1-8.73-33.76-.69-1.43-.33-1.92.98-2.39,7.54-2.72,5.55-3.93,8.98,3.22,1.23,2.56,2.08,5.32,2.91,8.04.54,1.77,1.27,2.32,3.18,1.75,2.98-.87,6.11-1.2,9.08-2.09,1.71-.51,2.12.01,2.54,1.49,1.61,5.63,1.6,5.71-4.24,6.95q-7.84,1.67-6.81,9.44c.15,1.11.39,2.22.43,3.33.25,7.58,1.51,5.35-6.09,6.7Z"/><path class="cls-6" d="m73.86,29.46c-1.12-2.85-.12-4.03,2.89-4.61,6.21-1.2,12.31-3.06,18.72-3.04,6.05.02,8.16,2.17,8.52,8.29.26,4.39-.69,8.67-.85,13.01.26,1.84.25,3.66-.36,5.45-.37,1.67-.79,3.33-1.2,4.99-1.81,3.8-1.93,3.85-6.72,2.89-4.46-1.39-4.56-1.55-3.55-5.94.36-1.57.78-3.12,1.19-4.68.42-1.68.78-3.38,1.07-5.09.33-1.25.46-2.53.45-3.83.01-.86.12-1.71.18-2.57.19-2.46-1-3.42-3.34-2.99-2.29.42-4.63.58-6.87,1.28-2.77.58-5.47,1.54-8.34,1.63-.63-.07-1.08-.4-1.44-.9-.62-1.25-1.21-2.5-.37-3.89Z"/><path class="cls-6" d="m15.56,67.37c-.96-.67-1.93-1.34-2.89-2.01-.98-1.46-1.96-2.91-2.93-4.37-.18-.18-.27-.37-.25-.58.01-.22.05-.33.1-.33-.74-8.6,3.82-14.07,12.46-14.91,1.34-.13,2.7-.11,4.05-.16,1.75-.85,3.25.17,4.84.61,1.67.55,2.9,1.72,4.11,2.92,2.17,2.16,2.77,4.96,3.21,7.83-.44,5.93-3.73,9.75-9.01,12.08-3.08.92-6.14,2.11-9.43.97-1.63-.24-3.32-.36-4.25-2.04Z"/><path class="cls-6" d="m31.6,39.87c-8.84,1.43-17.62,3.14-26.58,3.85-5.7.45-3.16-3.81-3.79-6.01-.9-3.13,2-2.12,3.37-2.22,8.95-.67,8.92-.61,6.98-9.52-.27-1.23-1.45-3.18-.17-3.7,2.35-.95,5.04-1.04,7.61-1.39.14-.02.46.8.58,1.26.28,1.08.37,2.23.74,3.27.87,2.46-.28,6.32,1.73,7.25,2.02.94,5.22-.53,7.87-1.1,5.91-1.26,5.9-1.3,7.87,4.63,1.15,1.44.17,2.28-.97,2.82-1.63.78-3.34,1.48-5.23.86Z"/><path class="cls-6" d="m216.31,36.09c-.38,1.43.93,3.54-.73,4.12-2.17.75-4.66.71-7.01.72-.74,0-.56-1.23-.64-1.94-1.3-11.91-3.53-23.59-8.85-34.46-.66-1.35-.32-1.89,1.05-2.38,7.33-2.65,5.65-4.05,9.02,3.28,4.45,9.69,6.28,20.12,7.16,30.67Z"/><path class="cls-6" d="m158.82,80.73c-.32,3.27,0,5.82.49,8.38.2,1.04,1.29,2.61-.67,3.06-1.6.36-3.53.26-4.11-1.63-1.46-4.73-1.58-9.63.05-14.28.87-2.5,3.28-1.86,4.96-.55,1.64,1.27,2.97,2.93,4.69,4.67.37-1.47.68-2.7.99-3.92.41-1.65,1.57-2.12,3.1-1.94,1.78.21,1.65,1.51,1.53,2.79-.36,3.72-.39,7.43.24,11.14.2,1.19,1.49,2.77-.6,3.42-1.81.56-3.35.11-4.29-1.86-1.54-3.23-3.41-6.26-6.38-9.27Z"/><path class="cls-6" d="m121.14,97.64c-1.43.07-2.86.13-4.29.2-1.37.66-2.61.18-3.84-.41-1.94-.91-3.36-2.37-4.44-4.19-.89-1.49-1.48-3.09-1.69-4.83-.19-4.83,3.04-7.02,6.78-8.82,1.5-.75,3.1-1.04,4.76-1.07,1.27-.02,2.52.07,3.58.88,2.97,1.6,1.98,3.59.55,5.62-1.12.88-2.48.66-3.75.79-4.39,1.13-5.13,2.86-2.58,6.21,1.16-.65,1.16-2.5,2.74-2.71,1.18-.11,2.43-.42,3.02,1.08,1.41.82,4.24.48,4.12,2.33-.15,2.55-2.53,4.03-4.95,4.93Z"/><path class="cls-13" d="m122,79.4c-1.32-.03-2.63-.06-3.95-.09-1.07-.45-1.31-1.4-1.47-2.41-1.63-10.23-6.19-19.03-13.04-26.72-.65-.73-1.42-1.41-1.5-2.48.37-1.53.74-3.06,1.11-4.59,10.75,9.78,17.25,21.76,18.85,36.28Z"/><path class="cls-6" d="m141.67,88.47c-.43-5.04-3.95-6.94-8.61-4.89-1.19.52-2.85,1.14-2.34,2.83.52,1.73,2.08.65,3.21.64,1.07-1.57,2.47-1.07,3.95-.23-1.33.23-2.66.45-3.98.68-.6.62-1.29,1.18-1.79,1.88-.98,1.35-1.71,2.85-.77,4.49.98,1.7,2.78,2.47,4.47,1.98,2.23-.65,5.19.15,6.46-.89,1.78-1.44-.41-4.23-.6-6.49Zm-4.94,4.21c-1.01.22-1.68-.41-1.66-1.4.03-1.14.92-1.64,1.94-1.76.83-.1,1.31.41,1.5.91,0,1.49-.81,2.04-1.78,2.25Z"/><path class="cls-6" d="m187.81,86.22c-.87-1.5-1.9-.32-2.81.2-1.86,1.05-3.63,1.36-5.28-.49,1.21-.97,2.67-.85,3.9-1.33,1.4-.54,3.89.04,3.5-2.78-.33-2.39-1.76-3.85-4.15-4-3.16-.2-6.01.63-7.4,3.79-1.24,2.82.12,5.07,2.21,6.88,2.33,2.01,6.42,2.17,8.64.38.8-.64,2.14-1.35,1.39-2.65Zm-4.6-5.07q-1.41,1.3-3.85,1.11c1.25-1.63,2.49-1.54,3.85-1.11Z"/><path class="cls-16" d="m31.6,39.87c1.58-.49,3.13-1.11,4.73-1.44,1.39-.29,1.77-.98,1.47-2.25,4.74-2.79,9.89-4.52,15.16-5.94.34,1.18.69,2.37,1.03,3.55-.55.95-1.56,1.2-2.49,1.49-7.27,2.31-14.05,5.55-19.95,10.48-.36.3-.79.6-1.33.4-1.38-.38-2.76-.77-4.14-1.15,1.84-1.71,3.67-3.43,5.51-5.14Z"/><path class="cls-10" d="m9.57,60.08c.08.2.19.39.24.6.02.09-.05.21-.08.31-2.06,3.44-3.08,7.24-3.89,11.11-.36,1.73-.95,2.71-2.96,1.84-1.57-.68-3.57-.77-2.64-3.39.78-2.2,1.39-4.46,2.1-6.68q1.76-5.53,7.24-3.79Z"/><path class="cls-10" d="m131.24,99.84c-1.28,3.96-2.33,7.89-3.84,11.64-.9,2.23-2.77.57-4.2.29-1.55-.3-1.56-1.37-1.03-2.54,1.54-3.39,2.53-6.96,3.36-10.58.23-1,.36-2.12,1.83-1.49,1.44.63,3.57.36,3.88,2.67Z"/><path class="cls-5" d="m73.86,29.46c.3,1.28.6,2.57.9,3.85-3.85,1.41-7.56.38-11.25-.71-.44-1.22-.87-2.44-1.31-3.67,3.91-.32,7.78.22,11.66.52Z"/><path class="cls-1" d="m118.28,84.93c1.42.03,2.85.06,4.27.08-.08,1.8.16,3.64-.58,5.37-1.25-.14-2.49-.28-3.74-.41-1.35-1.69-1.3-3.37.05-5.04Z"/><path class="cls-19" d="m107.65,88.74c.62,1.54,1.25,3.07,1.87,4.61.3,1.6-.86,2.51-1.69,3.56-8.09,10.27-16.01,20.67-24.11,30.93-.43.55-1.16.99-1,2.07,13.64-5.56,22.85-15.19,27.82-28.98.54-1.5.14-3.63,2.3-4.3,1.33.4,2.67.8,4,1.2-5.69,28.03-36.26,46.69-64.34,39.28-29.51-7.79-46.28-36.59-38.36-65.92.35-1.31.94-2.55,1.41-3.83,1.56.49,3.12.98,4.67,1.47,1.1,1.49.08,2.86-.32,4.22-.57,1.96-1.23,3.89-1.16,6.03,3.72-3.61,5.94-8.39,10.18-11.39,4.82-2.17,7.85-5.71,8.49-11.08,1.49-3.36,3.48-6.32,6.64-8.36,2.18-.4,4.35-.81,6.53-1.21.19,2.27-1.45,3.65-2.65,5.16-8.41,10.64-16.36,21.67-25.15,31.98-4.54,5.32-4.68,10.25-2.02,16.44,4.32-4.78,7.95-9.88,11.83-14.77,7.42-9.36,14.74-18.8,22.15-28.16.94-1.19,1.63-2.88,3.57-2.95.39,1.76.77,3.52,1.16,5.28.51,1.62-.69,2.53-1.51,3.58-10.26,13.02-20.26,26.23-30.66,39.15-4.01,4.98-3.87,5.44-.75,10.01,1.44,2.12,2.54,1.91,3.98.09,4.5-5.66,8.79-11.48,13.38-17.07.88-1.08,1.55-2.74,3.52-2.01,1.12,1.16,1.32,2.6,1.28,4.12-.21,2.25-1.64,3.85-2.95,5.51-3.71,4.69-7.25,9.52-11.06,14.13-2.45,2.97.1,4.12,1.8,5.64,1.82,1.63,3.38,2.21,5.23-.24,4.5-5.97,9.08-11.88,13.76-17.71,1.59-1.53,2.1-4.27,4.94-4.38,1.22.66,2.19,1.66,3.26,2.53.33,1.47-.81,2.26-1.53,3.22-4.79,6.38-9.8,12.58-14.64,18.93-2.15,2.82-2.03,3.31,1.37,4.61,4.29,1.64,4.96,1.48,7.88-2.22,6.72-8.51,13.05-17.31,20.16-25.51,2.27-.53,3.03-2.27,3.41-4.31,1.24-1.48,1.58-4.06,4.41-3.57,1.13,1.45,1.45,3.11,1.26,4.89-.48,2.01-1.85,3.47-3.07,5.04-6.71,8.65-13.48,17.24-20.22,25.86-.51.66-1.24,1.22-1.29,2.17,7.38,1.92,9.91,1.02,14.38-4.82,6.87-8.99,14.1-17.7,20.87-26.77,2.81-3.22,5.2-6.79,7.98-10.03.78-.9,1.16-2.55,2.95-2.15Z"/><path class="cls-11" d="m47.05,93.67c-5.71,6.38-10.69,13.33-15.97,20.05q-2.63,3.35-5.07-.17c-3.81-5.51-3.84-5.53.34-10.91,11.03-14.21,22.09-28.4,33.14-42.59.11-.06.21-.13.32-.18,2.36-1.17,6.05.9,7.28-1.85.94-2.09-.02-5.03-.14-7.59,1.73-4.53,5.25-7.79,8.18-11.47.66-.83,1.69-.98,2.75-.76.98.2,1.93.52,2.87.83,6.79,2.28,6.96,3.41,2.59,9.15-8.75,11.5-17.9,22.69-26.69,34.16-1.51,1.97-2.92,4.04-4.84,5.66-4.01-.14-3.25,3.71-4.75,5.67Z"/><path class="cls-11" d="m58.34,54.76c-12.2,15.5-24.39,31-36.59,46.5-.3.38-.61.75-1.17,1.42-2.11-3.98-2.63-8.09-3.09-12.18-.14-1.26,1.11-2.15,1.87-3.13,10.41-13.44,20.82-26.87,31.23-40.31q6.86-1.71,7.69,5.12c.1.85.04,1.72.05,2.58Z"/><path class="cls-14" d="m51.49,87.48c10.91-13.96,21.83-27.93,32.74-41.89,2.44-3.12,2.36-3.45-1.46-4.94-1.38-.54-2.84-.89-4.22-1.42-1.66-.63-2.68-.08-3.73,1.33-2.51,3.37-5.23,6.58-7.87,9.86-.28-1.82-.56-3.63-.84-5.45.3-2.29,1.62-4.08,3.26-6.07-1.6-.7-3.45.01-4.52-1.36-.66-1.59-1.29-3.18-1.34-4.93,3.78-.3,7.5.45,11.25.71.39.14.79.28,1.18.42,7.06.02,13.22,2.32,18.31,7.29.23,1.77-.19,3.43-.85,5.05-2.59-.23-3.93,1.51-5.32,3.28-9.47,12.1-18.86,24.27-28.32,36.38-.34.4-.69.8-1.02,1.22-1.24,1.84-2.78,3.42-4.25,5.05-.66.73-1.43,1.95-2.65.58-.52-1.67-1.29-3.33-.37-5.1Z"/><path class="cls-9" d="m30.23,46.17c6.58-6.7,14.82-10.22,23.77-12.37,1.67,4.24,1.67,4.26-2.56,5.12-2.43.49-4.86,1.08-7.32,1.29-2.47.21-3.07,1.34-2.41,3.51-1.94,2.42-4.29,4.27-7.33,5.12l-4.15-2.67Z"/><path class="cls-4" d="m34.38,48.84c2.29-1.93,4.68-3.71,7.33-5.12.93,1.44-.38,4.04,2.36,4.55-2.06,2.91-4.11,5.82-6.64,8.36-.49-2.8-1.22-5.51-3.05-7.79Z"/><path class="cls-2" d="m64.85,37.54h6.46c-2.05,2.93-3.62,5.19-5.2,7.44-.42-2.49-.84-4.96-1.26-7.44Z"/><path class="cls-11" d="m58.87,85.72c9.03-11.69,18.06-23.39,27.09-35.08.99-1.28,2.15-2.45,2.95-3.83,1.28-2.2,2.74-2.07,4.49-.73-.31,1.44-.4,2.98-.96,4.31-1.23,2.95-.9,4.89,2.71,5.27.2,1.83-1.08,2.98-2.04,4.22-8.4,10.92-16.93,21.73-25.39,32.6-.96,1.24-1.91,2.71-3.91,2.26-1.39-1.05-1.29-2.63-1.17-4.04.24-2.89-.66-4.72-3.77-4.97Z"/><path class="cls-15" d="m102.04,47.7c8.63,7.84,13.43,17.72,15.52,29.05.16.85.33,1.7.49,2.56-1.46.33-2.92.67-4.38,1-1.85-1.38-1.37-3.58-1.89-5.42-.4-1.41-.52-2.92-1.64-4.48-3.94,3.79-6.82,8.35-10.26,12.42-2.35,2.78-3.9,6.35-7.51,7.97-1.69.09-3.52.62-4.48-1.48,1.32-4.45,4.97-7.32,7.54-10.92,3.03-4.25,6.29-8.35,9.61-12.37,1.84-2.23,1.93-4.09.18-6.29-1.01-1.26-1.82-2.67-2.6-4.09-.22-1.09-2.2-1.01-1.72-2.56l1.13-5.38Z"/><path class="cls-15" d="m100.9,53.08c.42,1.04,2.33.32,2.29,1.93-8.47,9.71-16.1,20.09-24.08,30.18-1.98,2.51-3.67,5.29-6.52,6.98-2.28.06-3.05,1.36-2.85,3.47-.59,2.48-1.43,4.69-4.66,4.31-1.21-1.54-2.09-3.14-.69-5.04,10.57-12.85,20.69-26.04,30.77-39.27,2.52.5,5.1,1.12,5.75-2.57Z"/><path class="cls-3" d="m94.25,41.02c-5.78-3.26-11.73-6.08-18.31-7.29,2.59-1,5.28-1.59,8.02-1.97,3.98,1.03,8.27,1.41,10.96,5.18.13,1.41.06,2.79-.66,4.07Z"/><path class="cls-17" d="m28.94,67.71c-3.59,4.64-7.18,9.29-11.34,14.67-.08-5.37,1.44-9.43,2.64-13.54,2.97.16,5.86-.31,8.71-1.13Z"/><path class="cls-8" d="m24.48,60.53c-2,.5-3.85.45-5.21-1.41.1-2.97,1.63-5.03,4.13-6.47,2.22-.35,3.97.14,4.65,2.57-.2,2.44-1.79,3.94-3.58,5.3Z"/><path class="cls-7" d="m23.4,52.65c-1.38,2.16-2.75,4.31-4.13,6.47-1.63-4.26-.63-5.83,4.13-6.47Z"/><path class="cls-18" d="m24.48,60.53c1.19-1.77,2.38-3.54,3.58-5.31,1.14,3.35-.75,4.64-3.58,5.31Z"/><path class="cls-12" d="m112.85,96.63c-3.33,12.02-9.65,22.01-20.11,29.05-3.75,2.53-7.62,4.99-12.9,5.62,10.14-12.98,19.91-25.47,29.68-37.96,1.11,1.1,2.22,2.19,3.33,3.28Z"/><path class="cls-12" d="m92.83,90.2c5.75-7.23,11.49-14.46,17.48-22,2.22,3.96,2.59,8.1,3.36,12.11-3.29,1.89-6.12,4.12-6.02,8.43-3.44,4.21-6.89,8.43-10.33,12.64-.3-.22-.53-.5-.68-.84.05-3.93-2.68-6.84-3.81-10.34Z"/><path class="cls-6" d="m118.28,84.93c-.02,1.68-.03,3.36-.05,5.04-1.07,1.1.1,2.35-.27,3.66-2.79-.06-4.33-1.4-4.42-4.22-.11-3.23,2.13-4.07,4.74-4.49Z"/><path class="cls-11" d="m97.19,100.32c.04.35.08.71.12,1.06-7.98,10.31-15.98,20.61-23.91,30.95-.79,1.04-1.81,1.33-2.88,1.45-3.56.4-7.12.52-11.24-.43,8.92-11.42,17.6-22.53,26.29-33.64,2.33.32,4.22.31,3.44-3.05-.3-1.28-.14-2.91,1.57-3.31,1.8-.41,2.81.88,3.28,2.34.63,1.94,1.4,3.67,3.33,4.63Z"/><path class="cls-11" d="m72.51,91.83c9.13-11.55,18.25-23.12,27.41-34.65.82-1.04,1.19-2.95,3.27-2.17,1.37,3.01,5.31,5.31,4.55,8.57-.66,2.85-3.68,5.16-5.69,7.7-4.54,5.75-9.08,11.48-13.63,17.22-1.14-.38-.88-2.73-2.52-2.1-1.54.59-.98,2.26-1.08,3.55-.11,1.48,1.1,3.11-.48,4.43-1.08,1.23-2.16,2.46-3.25,3.7-1.86-1.09-.95-3.14-1.59-4.65-.33-.78-.54-1.81-1.71-1.49-.92.25-.8,1.14-.77,1.87.08,1.73.41,3.56-1.52,4.58-1.04.54-1.99.05-2.63-.76-1.42-1.81-1.78-3.75-.37-5.77Z"/><path class="cls-12" d="m65.57,100.08c1.86-.79,2.73-2.43,3.54-4.12-.09-.3-.07-.54.1-.56.62-.07.93.41,1.07.84.9,2.85,2.56,4.75,5.73,5.06.73.07,1.38.58,1.28,1.53-7.22,9.32-14.52,18.59-21.62,28-1.73,2.3-3.42,1.34-5.21.74-6.91-2.32-6.9-2.35-2.58-7.92,5.17-6.67,10.35-13.34,15.53-20.01.78-1.15,1.28-2.48,2.16-3.57Z"/><path class="cls-12" d="m56.07,105.59c-4.97,6.49-9.96,12.97-14.91,19.48-.95,1.25-1.67,1.27-3.05.42-6.96-4.3-7.06-4.58-2.17-10.81,4.13-5.27,8.24-10.55,12.36-15.82,1.35-.65,1.16.73,1.28,1.18.89,3.31,2.91,4.96,6.39,4.68.23.17.32.36.27.56-.05.21-.11.31-.18.31Z"/><path class="cls-6" d="m56.01,104.77c-4.9,1.46-5.61.92-7.71-5.92-.42-1.72-.83-3.45-1.25-5.18-.02-6.1.1-6.26,4.44-6.19.37,1.84.73,3.69,1.1,5.53,3.59,1.03,4.37.62,4.8-2.66.19-1.48.33-2.95,1.11-4.26.13-.12.25-.25.38-.37,4.65-1.29,4.62-1.29,4.69,3.47.03,1.94-.12,3.92.83,5.74-.12,1.84.6,3.48,1.18,5.15.85,2.15-.02,3.24-2.16,3.57-1.85-.03-2.49-1.45-3.2-2.8-1.04-.5-1.96-1.67-3.28-.91-1.55.88-.32,2.15-.3,3.25.01.63-.06,1.2-.62,1.59Z"/><path class="cls-6" d="m84.36,94.37c-.17-1.85-.44-3.7-.47-5.55-.03-1.81-.36-4.07,2.4-4.18,2.97-.12,1.53,2.5,2.14,3.85.54,2.95,3.2.45,4.4,1.7,3.03,2.69,4.64,6,4.37,10.12-2,.42-3.47.06-3.59-2.37-.02-.37-.03-.76-.17-1.09-.6-1.42-.93-3.67-2.94-3.06-1.78.53-.75,2.51-.58,3.89.15,1.2,1.71,2.59-.21,3.49-1.66.77-3.11.1-4.11-1.45-.41-1.78-.81-3.56-1.22-5.34Z"/><path class="cls-6" d="m77.28,102.84c-.38-.28-.81-.85-1.14-.8-4.78.74-6.01-2.54-7.03-6.08-.37-4.84-.33-4.89,3.4-4.12-.05,1.6-.21,3.22.39,4.75.31.78.76,1.65,1.83,1.52,1.06-.13,1.35-1.05,1.39-1.9.04-.97-.05-1.98-.3-2.91-.43-1.58-.17-2.65,1.6-3.01,1.64-.33,2.72.42,3.01,1.94.37,1.92.45,3.89.66,5.84-.16,2.49-.18,5.08-3.82,4.77Z"/><path class="cls-20" d="m56.01,104.77c.2-.89-.1-1.64-.42-2.47-.42-1.1-2.36-2.6.51-3.3,1.9-.46,3.92-1.41,4.11,1.85-1.38,1.58-2.76,3.16-4.14,4.74-.02-.27-.04-.55-.06-.82Z"/><path class="cls-6" d="m58.5,86.09c-.5,2.06-.39,4.12-.2,6.21.25,2.8-2.29,1.95-3.64,2.57-1.82.84-2.03-.51-2.07-1.86,1.97-2.31,3.94-4.62,5.91-6.93Z"/></svg>